<svg width="177" height="47" viewBox="0 0 177 47" fill="none" xmlns="http://www.w3.org/2000/svg">
<g filter="url(#filter0_i)">
<path d="M18.72 10.8H25.344L15.648 39.888C15.008 41.84 14.096 43.28 12.912 44.208C11.76 45.136 10.096 45.6 7.92 45.6H3.504V40.08H8.256L9.12 37.296L0.288 10.8H7.344L11.04 22.56L12.864 29.856H13.152L15.024 22.56L18.72 10.8ZM39.0896 36.576C37.1696 36.576 35.4576 36.272 33.9536 35.664C32.4496 35.024 31.1696 34.144 30.1136 33.024C29.0896 31.872 28.3056 30.48 27.7616 28.848C27.2496 27.216 26.9936 25.392 26.9936 23.376C26.9936 21.392 27.2496 19.6 27.7616 18C28.2736 16.368 29.0256 14.976 30.0176 13.824C31.0416 12.672 32.2896 11.792 33.7616 11.184C35.2336 10.544 36.9136 10.224 38.8016 10.224C40.8816 10.224 42.6576 10.576 44.1296 11.28C45.6336 11.984 46.8496 12.928 47.7776 14.112C48.7376 15.296 49.4256 16.672 49.8416 18.24C50.2896 19.776 50.5136 21.392 50.5136 23.088V25.2H34.3376V25.584C34.3376 27.248 34.7856 28.576 35.6816 29.568C36.5776 30.528 37.9856 31.008 39.9056 31.008C41.3776 31.008 42.5776 30.72 43.5056 30.144C44.4336 29.536 45.2976 28.816 46.0976 27.984L49.6496 32.4C48.5296 33.712 47.0576 34.736 45.2336 35.472C43.4416 36.208 41.3936 36.576 39.0896 36.576ZM38.9456 15.456C37.5056 15.456 36.3696 15.936 35.5376 16.896C34.7376 17.824 34.3376 19.072 34.3376 20.64V21.024H43.1696V20.592C43.1696 19.056 42.8176 17.824 42.1136 16.896C41.4416 15.936 40.3856 15.456 38.9456 15.456ZM65.7548 36.576C63.8988 36.576 62.2348 36.272 60.7628 35.664C59.3228 35.056 58.0908 34.176 57.0668 33.024C56.0748 31.872 55.3068 30.48 54.7628 28.848C54.2188 27.216 53.9468 25.392 53.9468 23.376C53.9468 21.36 54.2188 19.536 54.7628 17.904C55.3068 16.272 56.0748 14.896 57.0668 13.776C58.0908 12.624 59.3228 11.744 60.7628 11.136C62.2348 10.528 63.8988 10.224 65.7548 10.224C67.6108 10.224 69.2588 10.528 70.6988 11.136C72.1708 11.744 73.4028 12.624 74.3948 13.776C75.4188 14.896 76.2028 16.272 76.7468 17.904C77.2908 19.536 77.5627 21.36 77.5627 23.376C77.5627 25.392 77.2908 27.216 76.7468 28.848C76.2028 30.48 75.4188 31.872 74.3948 33.024C73.4028 34.176 72.1708 35.056 70.6988 35.664C69.2588 36.272 67.6108 36.576 65.7548 36.576ZM65.7548 30.96C67.1628 30.96 68.2508 30.528 69.0188 29.664C69.7868 28.8 70.1708 27.568 70.1708 25.968V20.832C70.1708 19.232 69.7868 18 69.0188 17.136C68.2508 16.272 67.1628 15.84 65.7548 15.84C64.3468 15.84 63.2588 16.272 62.4908 17.136C61.7228 18 61.3388 19.232 61.3388 20.832V25.968C61.3388 27.568 61.7228 28.8 62.4908 29.664C63.2588 30.528 64.3468 30.96 65.7548 30.96ZM97.5045 31.776H97.2645C97.0405 32.416 96.7365 33.024 96.3525 33.6C96.0005 34.176 95.5365 34.688 94.9605 35.136C94.3845 35.584 93.6965 35.936 92.8965 36.192C92.1285 36.448 91.2325 36.576 90.2085 36.576C87.6165 36.576 85.6485 35.728 84.3045 34.032C82.9925 32.304 82.3365 29.84 82.3365 26.64V10.8H89.4405V26.016C89.4405 27.552 89.7125 28.736 90.2565 29.568C90.8005 30.4 91.7285 30.816 93.0405 30.816C93.5845 30.816 94.1285 30.736 94.6725 30.576C95.2165 30.416 95.6965 30.192 96.1125 29.904C96.5285 29.584 96.8645 29.2 97.1205 28.752C97.3765 28.304 97.5045 27.776 97.5045 27.168V10.8H104.609V36H97.5045V31.776ZM118.274 36C115.842 36 114.05 35.408 112.898 34.224C111.778 33.04 111.218 31.328 111.218 29.088V0.48H118.322V30.48H121.49V36H118.274ZM135.974 36.576C134.118 36.576 132.454 36.272 130.982 35.664C129.542 35.056 128.31 34.176 127.286 33.024C126.294 31.872 125.526 30.48 124.982 28.848C124.438 27.216 124.166 25.392 124.166 23.376C124.166 21.36 124.438 19.536 124.982 17.904C125.526 16.272 126.294 14.896 127.286 13.776C128.31 12.624 129.542 11.744 130.982 11.136C132.454 10.528 134.118 10.224 135.974 10.224C137.83 10.224 139.478 10.528 140.918 11.136C142.39 11.744 143.622 12.624 144.614 13.776C145.638 14.896 146.422 16.272 146.966 17.904C147.51 19.536 147.781 21.36 147.781 23.376C147.781 25.392 147.51 27.216 146.966 28.848C146.422 30.48 145.638 31.872 144.614 33.024C143.622 34.176 142.39 35.056 140.918 35.664C139.478 36.272 137.83 36.576 135.974 36.576ZM135.974 30.96C137.382 30.96 138.47 30.528 139.238 29.664C140.006 28.8 140.39 27.568 140.39 25.968V20.832C140.39 19.232 140.006 18 139.238 17.136C138.47 16.272 137.382 15.84 135.974 15.84C134.566 15.84 133.478 16.272 132.71 17.136C131.942 18 131.558 19.232 131.558 20.832V25.968C131.558 27.568 131.942 28.8 132.71 29.664C133.478 30.528 134.566 30.96 135.974 30.96ZM176.171 37.824C176.171 39.168 175.931 40.352 175.451 41.376C175.003 42.4 174.251 43.264 173.195 43.968C172.139 44.704 170.731 45.248 168.971 45.6C167.243 45.984 165.099 46.176 162.539 46.176C160.363 46.176 158.507 46.032 156.971 45.744C155.467 45.488 154.235 45.104 153.275 44.592C152.347 44.112 151.659 43.504 151.211 42.768C150.795 42.064 150.587 41.248 150.587 40.32C150.587 38.912 151.003 37.808 151.835 37.008C152.667 36.208 153.819 35.712 155.291 35.52V34.992C154.075 34.768 153.163 34.256 152.555 33.456C151.947 32.624 151.643 31.664 151.643 30.576C151.643 29.904 151.771 29.328 152.027 28.848C152.315 28.336 152.667 27.904 153.083 27.552C153.531 27.168 154.043 26.864 154.619 26.64C155.195 26.416 155.771 26.24 156.347 26.112V25.92C154.811 25.216 153.675 24.256 152.939 23.04C152.203 21.792 151.835 20.352 151.835 18.72C151.835 16.16 152.715 14.112 154.475 12.576C156.267 11.008 158.987 10.224 162.635 10.224C164.299 10.224 165.723 10.384 166.907 10.704V9.744C166.907 8.4 167.227 7.44 167.867 6.864C168.539 6.256 169.483 5.952 170.699 5.952H174.683V11.232H169.115V11.52C170.587 12.224 171.675 13.2 172.379 14.448C173.083 15.664 173.435 17.088 173.435 18.72C173.435 21.248 172.539 23.28 170.747 24.816C168.987 26.32 166.283 27.072 162.635 27.072C161.003 27.072 159.515 26.896 158.171 26.544C157.435 27.024 157.067 27.696 157.067 28.56C157.067 29.168 157.291 29.648 157.739 30C158.219 30.32 159.003 30.48 160.091 30.48H167.387C170.459 30.48 172.683 31.12 174.059 32.4C175.467 33.68 176.171 35.488 176.171 37.824ZM169.499 38.784C169.499 38.048 169.211 37.488 168.635 37.104C168.059 36.72 167.051 36.528 165.611 36.528H156.971C156.651 36.848 156.411 37.2 156.251 37.584C156.123 38 156.059 38.4 156.059 38.784C156.059 39.712 156.459 40.384 157.259 40.8C158.059 41.248 159.419 41.472 161.339 41.472H164.219C166.139 41.472 167.499 41.248 168.299 40.8C169.099 40.384 169.499 39.712 169.499 38.784ZM162.635 22.416C164.043 22.416 165.083 22.128 165.755 21.552C166.459 20.944 166.811 20.08 166.811 18.96V18.384C166.811 17.264 166.459 16.416 165.755 15.84C165.083 15.232 164.043 14.928 162.635 14.928C161.227 14.928 160.171 15.232 159.467 15.84C158.795 16.416 158.459 17.264 158.459 18.384V18.96C158.459 20.08 158.795 20.944 159.467 21.552C160.171 22.128 161.227 22.416 162.635 22.416Z" fill="#0FA958"/>
</g>
<defs>
<filter id="filter0_i" x="0.288086" y="0.47998" width="175.883" height="45.696" filterUnits="userSpaceOnUse" color-interpolation-filters="sRGB">
<feFlood flood-opacity="0" result="BackgroundImageFix"/>
<feBlend mode="normal" in="SourceGraphic" in2="BackgroundImageFix" result="shape"/>
<feColorMatrix in="SourceAlpha" type="matrix" values="0 0 0 0 0 0 0 0 0 0 0 0 0 0 0 0 0 0 127 0" result="hardAlpha"/>
<feOffset dx="3" dy="3"/>
<feComposite in2="hardAlpha" operator="arithmetic" k2="-1" k3="1"/>
<feColorMatrix type="matrix" values="0 0 0 0 1 0 0 0 0 1 0 0 0 0 1 0 0 0 0.5 0"/>
<feBlend mode="normal" in2="shape" result="effect1_innerShadow"/>
</filter>
</defs>
</svg>
