<svg width="177" height="47" viewBox="0 0 177 47" fill="none" xmlns="http://www.w3.org/2000/svg"><g filter="url(#filter0_i)"><path d="M18.72 10.8h6.624l-9.696 29.088c-.64 1.952-1.552 3.392-2.736 4.32-1.152.928-2.816 1.392-4.992 1.392H3.504v-5.52h4.752l.864-2.784L.288 10.8h7.056l3.696 11.76 1.824 7.296h.288l1.872-7.296L18.72 10.8zm20.37 25.776c-1.92 0-3.632-.304-5.136-.912-1.504-.64-2.784-1.52-3.84-2.64-1.024-1.152-1.808-2.544-2.352-4.176-.512-1.632-.768-3.456-.768-5.472 0-1.984.256-3.776.768-5.376.512-1.632 1.264-3.024 2.256-4.176a10.086 10.086 0 013.744-2.64c1.472-.64 3.152-.96 5.04-.96 2.08 0 3.856.352 5.328 1.056 1.504.704 2.72 1.648 3.648 2.832.96 1.184 1.648 2.56 2.064 4.128.448 1.536.672 3.152.672 4.848V25.2H34.338v.384c0 1.664.448 2.992 1.344 3.984.896.96 2.304 1.44 4.224 1.44 1.472 0 2.672-.288 3.6-.864a14.984 14.984 0 002.592-2.16L49.65 32.4c-1.12 1.312-2.592 2.336-4.416 3.072-1.792.736-3.84 1.104-6.144 1.104zm-.144-21.12c-1.44 0-2.576.48-3.408 1.44-.8.928-1.2 2.176-1.2 3.744v.384h8.832v-.432c0-1.536-.352-2.768-1.056-3.696-.672-.96-1.728-1.44-3.168-1.44zm26.809 21.12c-1.856 0-3.52-.304-4.992-.912a10.175 10.175 0 01-3.696-2.64c-.992-1.152-1.76-2.544-2.304-4.176-.544-1.632-.816-3.456-.816-5.472 0-2.016.272-3.84.816-5.472.544-1.632 1.312-3.008 2.304-4.128a10.175 10.175 0 013.696-2.64c1.472-.608 3.136-.912 4.992-.912 1.856 0 3.504.304 4.944.912 1.472.608 2.704 1.488 3.696 2.64 1.024 1.12 1.808 2.496 2.352 4.128.544 1.632.816 3.456.816 5.472 0 2.016-.272 3.84-.816 5.472-.544 1.632-1.328 3.024-2.352 4.176-.992 1.152-2.224 2.032-3.696 2.64-1.44.608-3.088.912-4.944.912zm0-5.616c1.408 0 2.496-.432 3.264-1.296.768-.864 1.152-2.096 1.152-3.696v-5.136c0-1.6-.384-2.832-1.152-3.696-.768-.864-1.856-1.296-3.264-1.296-1.408 0-2.496.432-3.264 1.296-.768.864-1.152 2.096-1.152 3.696v5.136c0 1.6.384 2.832 1.152 3.696.768.864 1.856 1.296 3.264 1.296zm31.75.816h-.24a8.104 8.104 0 01-.912 1.824 5.73 5.73 0 01-1.392 1.536c-.576.448-1.264.8-2.064 1.056-.769.256-1.665.384-2.689.384-2.591 0-4.56-.848-5.903-2.544-1.313-1.728-1.969-4.192-1.969-7.392V10.8h7.105v15.216c0 1.536.272 2.72.816 3.552.543.832 1.471 1.248 2.783 1.248.544 0 1.088-.08 1.632-.24a4.976 4.976 0 001.44-.672c.416-.32.753-.704 1.009-1.152.255-.448.383-.976.383-1.584V10.8h7.105V36h-7.105v-4.224zM118.273 36c-2.432 0-4.224-.592-5.376-1.776-1.12-1.184-1.68-2.896-1.68-5.136V.48h7.104v30h3.168V36h-3.216zm17.7.576c-1.856 0-3.52-.304-4.992-.912a10.175 10.175 0 01-3.696-2.64c-.992-1.152-1.76-2.544-2.304-4.176-.544-1.632-.816-3.456-.816-5.472 0-2.016.272-3.84.816-5.472.544-1.632 1.312-3.008 2.304-4.128a10.175 10.175 0 013.696-2.64c1.472-.608 3.136-.912 4.992-.912 1.856 0 3.504.304 4.944.912 1.472.608 2.704 1.488 3.696 2.64 1.024 1.12 1.808 2.496 2.352 4.128.544 1.632.815 3.456.815 5.472 0 2.016-.271 3.84-.815 5.472-.544 1.632-1.328 3.024-2.352 4.176-.992 1.152-2.224 2.032-3.696 2.64-1.44.608-3.088.912-4.944.912zm0-5.616c1.408 0 2.496-.432 3.264-1.296.768-.864 1.152-2.096 1.152-3.696v-5.136c0-1.6-.384-2.832-1.152-3.696-.768-.864-1.856-1.296-3.264-1.296-1.408 0-2.496.432-3.264 1.296-.768.864-1.152 2.096-1.152 3.696v5.136c0 1.6.384 2.832 1.152 3.696.768.864 1.856 1.296 3.264 1.296zm40.197 6.864c0 1.344-.24 2.528-.72 3.552-.448 1.024-1.2 1.888-2.256 2.592-1.056.736-2.464 1.28-4.224 1.632-1.728.384-3.872.576-6.432.576-2.176 0-4.032-.144-5.568-.432-1.504-.256-2.736-.64-3.696-1.152-.928-.48-1.616-1.088-2.064-1.824-.416-.704-.624-1.52-.624-2.448 0-1.408.416-2.512 1.248-3.312.832-.8 1.984-1.296 3.456-1.488v-.528c-1.216-.224-2.128-.736-2.736-1.536-.608-.832-.912-1.792-.912-2.88 0-.672.128-1.248.384-1.728.288-.512.64-.944 1.056-1.296.448-.384.96-.688 1.536-.912.576-.224 1.152-.4 1.728-.528v-.192c-1.536-.704-2.672-1.664-3.408-2.88-.736-1.248-1.104-2.688-1.104-4.32 0-2.56.88-4.608 2.64-6.144 1.792-1.568 4.512-2.352 8.16-2.352 1.664 0 3.088.16 4.272.48v-.96c0-1.344.32-2.304.96-2.88.672-.608 1.616-.912 2.832-.912h3.984v5.28h-5.568v.288c1.472.704 2.56 1.68 3.264 2.928.704 1.216 1.056 2.64 1.056 4.272 0 2.528-.896 4.56-2.688 6.096-1.76 1.504-4.464 2.256-8.112 2.256-1.632 0-3.12-.176-4.464-.528-.736.48-1.104 1.152-1.104 2.016 0 .608.224 1.088.672 1.44.48.32 1.264.48 2.352.48h7.296c3.072 0 5.296.64 6.672 1.92 1.408 1.28 2.112 3.088 2.112 5.424zm-6.672.96c0-.736-.288-1.296-.864-1.68-.576-.384-1.584-.576-3.024-.576h-8.64c-.32.32-.56.672-.72 1.056a4.076 4.076 0 00-.192 1.2c0 .928.4 1.6 1.2 2.016.8.448 2.16.672 4.08.672h2.88c1.92 0 3.28-.224 4.08-.672.8-.416 1.2-1.088 1.2-2.016zm-6.864-16.368c1.408 0 2.448-.288 3.12-.864.704-.608 1.056-1.472 1.056-2.592v-.576c0-1.12-.352-1.968-1.056-2.544-.672-.608-1.712-.912-3.12-.912-1.408 0-2.464.304-3.168.912-.672.576-1.008 1.424-1.008 2.544v.576c0 1.12.336 1.984 1.008 2.592.704.576 1.76.864 3.168.864z" fill="#0FA958"/></g><defs><filter id="filter0_i" x=".288" y=".48" width="175.883" height="45.696" filterUnits="userSpaceOnUse" color-interpolation-filters="sRGB"><feFlood flood-opacity="0" result="BackgroundImageFix"/><feBlend in="SourceGraphic" in2="BackgroundImageFix" result="shape"/><feColorMatrix in="SourceAlpha" values="0 0 0 0 0 0 0 0 0 0 0 0 0 0 0 0 0 0 127 0" result="hardAlpha"/><feOffset dx="3" dy="3"/><feComposite in2="hardAlpha" operator="arithmetic" k2="-1" k3="1"/><feColorMatrix values="0 0 0 0 1 0 0 0 0 1 0 0 0 0 1 0 0 0 0.5 0"/><feBlend in2="shape" result="effect1_innerShadow"/></filter></defs></svg>